<svg width="14" height="14" viewBox="0 0 14 14" fill="none" xmlns="http://www.w3.org/2000/svg">
<g clip-path="url(#clip0_98941_45099)">
<path d="M7.99992 3.99999C7.99992 2.99999 8.49992 2.99999 8.99992 2.99999H9.59992C9.7001 3.00133 9.79953 2.9826 9.89234 2.94488C9.98516 2.90716 10.0695 2.85123 10.1403 2.78039C10.2112 2.70955 10.2671 2.62523 10.3048 2.53241C10.3425 2.4396 10.3613 2.34017 10.3599 2.23999V1.29999C10.3599 1.19934 10.3399 1.09969 10.3011 1.00682C10.2623 0.913957 10.2054 0.829727 10.1338 0.759022C10.0622 0.688317 9.9772 0.632546 9.88383 0.594946C9.79047 0.557346 9.69056 0.538666 9.58992 0.53999L8.16992 0.51999C7.75645 0.503997 7.34443 0.577913 6.96231 0.736636C6.58018 0.895359 6.23705 1.13511 5.95659 1.43934C5.67613 1.74357 5.46502 2.10503 5.33784 2.49878C5.21065 2.89253 5.17042 3.30918 5.21992 3.71999V5.16999H4.42992C4.22836 5.16999 4.03505 5.25006 3.89252 5.39259C3.74999 5.53512 3.66992 5.72843 3.66992 5.92999V6.86999C3.66992 7.07155 3.74999 7.26486 3.89252 7.40739C4.03505 7.54992 4.22836 7.62999 4.42992 7.62999H5.21992V13C5.21992 13.1326 5.2726 13.2598 5.36637 13.3535C5.46014 13.4473 5.58731 13.5 5.71992 13.5H7.52992C7.65726 13.4923 7.77686 13.4363 7.86424 13.3433C7.95161 13.2504 8.00015 13.1276 7.99992 13V7.62999H8.87992C9.08149 7.62999 9.2748 7.54992 9.41732 7.40739C9.55985 7.26486 9.63992 7.07155 9.63992 6.86999V5.92999C9.63992 5.72843 9.55985 5.53512 9.41732 5.39259C9.2748 5.25006 9.08149 5.16999 8.87992 5.16999H7.99992V3.99999Z" stroke="#000001" stroke-linecap="round" stroke-linejoin="round"/>
</g>
<defs>
<clipPath id="clip0_98941_45099">
<rect width="14" height="14" fill="white"/>
</clipPath>
</defs>
</svg>
