<svg width="14" height="14" viewBox="0 0 14 14" className="w-5 h-5 text-primary"
 fill="none" xmlns="http://www.w3.org/2000/svg">
<g clip-path="url(#clip0_98941_45103)">
<path d="M3.54018 1.70999C3.54289 2.05932 3.40806 2.39569 3.16481 2.64643C2.92156 2.89716 2.58943 3.04212 2.24018 3.04999C1.89165 3.0372 1.56136 2.89101 1.31755 2.64162C1.07375 2.39224 0.93507 2.05872 0.930176 1.70999C0.945326 1.37023 1.0891 1.04894 1.33236 0.811252C1.57562 0.573566 1.90015 0.437269 2.24018 0.429993C2.57921 0.437405 2.9026 0.57404 3.14424 0.811961C3.38588 1.04988 3.52751 1.37112 3.54018 1.70999ZM1.07018 5.42999C1.07018 4.65999 1.56018 4.77999 2.24018 4.77999C2.92018 4.77999 3.40018 4.65999 3.40018 5.42999V12.93C3.40018 13.71 2.91018 13.55 2.24018 13.55C1.57018 13.55 1.07018 13.71 1.07018 12.93V5.42999Z" stroke="currentColor" stroke-linecap="round" stroke-linejoin="round"/>
<path d="M5.42041 5.42999C5.42041 4.99999 5.58041 4.83999 5.83041 4.78999C6.08041 4.73999 6.94041 4.78999 7.24041 4.78999C7.54041 4.78999 7.66041 5.27999 7.65041 5.64999C7.90703 5.30558 8.24773 5.03279 8.63993 4.8577C9.03212 4.68262 9.46268 4.6111 9.89041 4.64999C10.3104 4.62431 10.7312 4.68729 11.1253 4.83482C11.5194 4.98235 11.878 5.21115 12.1779 5.50634C12.4778 5.80153 12.7123 6.15651 12.866 6.54822C13.0198 6.93993 13.0894 7.35961 13.0704 7.77999V12.9C13.0704 13.68 12.5904 13.52 11.9104 13.52C11.2304 13.52 10.7504 13.68 10.7504 12.9V8.89999C10.768 8.69412 10.7411 8.48688 10.6715 8.29235C10.6018 8.09781 10.4912 7.92053 10.347 7.77254C10.2028 7.62456 10.0285 7.50933 9.8358 7.4347C9.64314 7.36006 9.43666 7.32776 9.23041 7.33999C9.02511 7.33478 8.82105 7.37323 8.63173 7.45281C8.44241 7.53238 8.27215 7.65127 8.13223 7.80159C7.99231 7.95191 7.88591 8.13024 7.82009 8.32477C7.75427 8.5193 7.73052 8.72559 7.75041 8.92999V12.93C7.75041 13.71 7.26041 13.55 6.58041 13.55C5.90041 13.55 5.42041 13.71 5.42041 12.93V5.42999Z" stroke="currentColor" stroke-linecap="round" stroke-linejoin="round"/>
</g>
<defs>
<clipPath id="clip0_98941_45103">
<rect width="14" height="14" fill="white"/>
</clipPath>
</defs>
</svg>
